<svg xmlns="http://www.w3.org/2000/svg" width="440" height="200" viewBox="0 0 440 200" role="img" aria-label="UI 作品集">
<rect x="1" y="1" width="438" height="198" rx="14" fill="#ffffff" stroke="#e4e9e7" stroke-width="2"/>
<g transform="translate(-5,-4) scale(0.75)"><rect x="32" y="30" width="54" height="54" rx="15" fill="#dcecff"/>
<g fill="none" stroke="#3767a0" stroke-width="2.2" stroke-linejoin="round" stroke-linecap="round"><rect x="41" y="41" width="36" height="32" rx="4" fill="#f4f8ff"/><path d="M41 50h36"/><circle cx="46" cy="46" r="1" fill="#3767a0" stroke="none"/><circle cx="50" cy="46" r="1" fill="#3767a0" stroke="none"/><rect x="46" y="56" width="10" height="11" rx="2" fill="#a8caf5" stroke="none"/><path d="M61 57h10M61 62h7M61 67h9"/></g>
</g>
<g font-family="-apple-system,BlinkMacSystemFont,Segoe UI,Arial,PingFang SC,Microsoft YaHei,sans-serif">
<text x="70" y="44" font-size="22" font-weight="650" fill="#202a26">UI 作品集</text>
<text x="20" y="86" font-size="18" fill="#616b66">UI 与产品界面设计，</text>
<text x="20" y="111" font-size="18" fill="#616b66">探索体验与视觉表达。</text>
<text x="20" y="139" font-size="15" fill="#748079">UI Design · 产品设计</text>
<text x="20" y="178" font-size="17" fill="#39765e">私有仓库 · 需授权访问</text>
</g><path d="M391 173h25m-8-8 8 8-8 8" fill="none" stroke="#39765e" stroke-width="2" stroke-linecap="round" stroke-linejoin="round"/>
</svg>
